<svg xmlns="http://www.w3.org/2000/svg" xmlns:xlink="http://www.w3.org/1999/xlink" width="500" zoomAndPan="magnify" viewBox="0 0 375 30.000001" height="40" preserveAspectRatio="xMidYMid meet" version="1.0"><defs><g/><clipPath id="64739029cc"><path d="M 340 5 L 357.816406 5 L 357.816406 22 L 340 22 Z M 340 5 " clip-rule="nonzero"/></clipPath><clipPath id="185852cda7"><rect x="0" width="358" y="0" height="27"/></clipPath></defs><g transform="matrix(1, 0, 0, 1, 8, 0.000000000000005718)"><g clip-path="url(#185852cda7)"><g fill="#ffffff" fill-opacity="1"><g transform="translate(1.408776, 21.170969)"><g><path d="M 6.421875 -7.125 L 6.421875 -2.765625 C 6.421875 -1.910156 6.472656 -1.375 6.578125 -1.15625 C 6.679688 -0.9375 6.863281 -0.757812 7.125 -0.625 C 7.394531 -0.488281 7.890625 -0.421875 8.609375 -0.421875 L 8.609375 0 L 0.609375 0 L 0.609375 -0.421875 C 1.335938 -0.421875 1.828125 -0.488281 2.078125 -0.625 C 2.335938 -0.769531 2.519531 -0.945312 2.625 -1.15625 C 2.726562 -1.375 2.78125 -1.910156 2.78125 -2.765625 L 2.78125 -12.984375 C 2.78125 -13.835938 2.726562 -14.375 2.625 -14.59375 C 2.519531 -14.8125 2.335938 -14.984375 2.078125 -15.109375 C 1.816406 -15.242188 1.328125 -15.3125 0.609375 -15.3125 L 0.609375 -15.75 L 7.46875 -15.75 C 9.726562 -15.75 11.347656 -15.34375 12.328125 -14.53125 C 13.316406 -13.726562 13.8125 -12.722656 13.8125 -11.515625 C 13.8125 -10.492188 13.492188 -9.617188 12.859375 -8.890625 C 12.222656 -8.160156 11.347656 -7.664062 10.234375 -7.40625 C 9.484375 -7.21875 8.210938 -7.125 6.421875 -7.125 Z M 6.421875 -14.84375 L 6.421875 -8.03125 C 6.671875 -8.019531 6.863281 -8.015625 7 -8.015625 C 7.945312 -8.015625 8.675781 -8.296875 9.1875 -8.859375 C 9.695312 -9.421875 9.953125 -10.289062 9.953125 -11.46875 C 9.953125 -12.632812 9.695312 -13.488281 9.1875 -14.03125 C 8.675781 -14.570312 7.910156 -14.84375 6.890625 -14.84375 Z M 6.421875 -14.84375 "/></g></g></g><g fill="#ffffff" fill-opacity="1"><g transform="translate(15.936949, 21.170969)"><g><path d="M 6.3125 -7.171875 L 6.3125 -2.765625 C 6.3125 -1.910156 6.363281 -1.375 6.46875 -1.15625 C 6.570312 -0.9375 6.753906 -0.757812 7.015625 -0.625 C 7.285156 -0.488281 7.78125 -0.421875 8.5 -0.421875 L 8.5 0 L 0.4375 0 L 0.4375 -0.421875 C 1.164062 -0.421875 1.660156 -0.488281 1.921875 -0.625 C 2.179688 -0.769531 2.363281 -0.945312 2.46875 -1.15625 C 2.570312 -1.375 2.625 -1.910156 2.625 -2.765625 L 2.625 -12.984375 C 2.625 -13.835938 2.570312 -14.375 2.46875 -14.59375 C 2.363281 -14.8125 2.175781 -14.984375 1.90625 -15.109375 C 1.644531 -15.242188 1.15625 -15.3125 0.4375 -15.3125 L 0.4375 -15.75 L 7.75 -15.75 C 9.65625 -15.75 11.050781 -15.613281 11.9375 -15.34375 C 12.820312 -15.082031 13.539062 -14.597656 14.09375 -13.890625 C 14.65625 -13.179688 14.9375 -12.351562 14.9375 -11.40625 C 14.9375 -10.238281 14.515625 -9.273438 13.671875 -8.515625 C 13.140625 -8.035156 12.394531 -7.675781 11.4375 -7.4375 L 15.21875 -2.109375 C 15.71875 -1.421875 16.070312 -0.992188 16.28125 -0.828125 C 16.59375 -0.585938 16.960938 -0.453125 17.390625 -0.421875 L 17.390625 0 L 12.421875 0 L 7.34375 -7.171875 Z M 6.3125 -14.890625 L 6.3125 -8 L 6.984375 -8 C 8.054688 -8 8.859375 -8.097656 9.390625 -8.296875 C 9.921875 -8.492188 10.335938 -8.847656 10.640625 -9.359375 C 10.953125 -9.878906 11.109375 -10.550781 11.109375 -11.375 C 11.109375 -12.570312 10.828125 -13.457031 10.265625 -14.03125 C 9.703125 -14.601562 8.800781 -14.890625 7.5625 -14.890625 Z M 6.3125 -14.890625 "/></g></g></g><g fill="#ffffff" fill-opacity="1"><g transform="translate(33.112943, 21.170969)"><g><path d="M 9.1875 -15.96875 C 11.695312 -16.0625 13.734375 -15.328125 15.296875 -13.765625 C 16.867188 -12.210938 17.65625 -10.269531 17.65625 -7.9375 C 17.65625 -5.9375 17.066406 -4.175781 15.890625 -2.65625 C 14.347656 -0.644531 12.164062 0.359375 9.34375 0.359375 C 6.507812 0.359375 4.316406 -0.597656 2.765625 -2.515625 C 1.535156 -4.035156 0.921875 -5.835938 0.921875 -7.921875 C 0.921875 -10.253906 1.71875 -12.203125 3.3125 -13.765625 C 4.90625 -15.328125 6.863281 -16.0625 9.1875 -15.96875 Z M 9.328125 -15.21875 C 7.890625 -15.21875 6.789062 -14.484375 6.03125 -13.015625 C 5.425781 -11.804688 5.125 -10.070312 5.125 -7.8125 C 5.125 -5.125 5.59375 -3.140625 6.53125 -1.859375 C 7.195312 -0.960938 8.117188 -0.515625 9.296875 -0.515625 C 10.097656 -0.515625 10.765625 -0.707031 11.296875 -1.09375 C 11.972656 -1.582031 12.5 -2.367188 12.875 -3.453125 C 13.257812 -4.546875 13.453125 -5.96875 13.453125 -7.71875 C 13.453125 -9.800781 13.257812 -11.359375 12.875 -12.390625 C 12.488281 -13.429688 11.992188 -14.160156 11.390625 -14.578125 C 10.796875 -15.003906 10.109375 -15.21875 9.328125 -15.21875 Z M 9.328125 -15.21875 "/></g></g></g><g fill="#ffffff" fill-opacity="1"><g transform="translate(51.612846, 21.170969)"><g><path d="M 16.9375 -15.75 L 16.9375 -15.3125 C 16.363281 -15.21875 15.847656 -14.914062 15.390625 -14.40625 C 15.066406 -14.007812 14.585938 -13.097656 13.953125 -11.671875 L 8.515625 0.359375 L 8.140625 0.359375 L 2.734375 -12.15625 C 2.085938 -13.664062 1.65625 -14.550781 1.4375 -14.8125 C 1.21875 -15.082031 0.800781 -15.25 0.1875 -15.3125 L 0.1875 -15.75 L 7.734375 -15.75 L 7.734375 -15.3125 L 7.484375 -15.3125 C 6.796875 -15.3125 6.328125 -15.226562 6.078125 -15.0625 C 5.898438 -14.945312 5.8125 -14.773438 5.8125 -14.546875 C 5.8125 -14.410156 5.84375 -14.242188 5.90625 -14.046875 C 5.96875 -13.859375 6.175781 -13.351562 6.53125 -12.53125 L 9.890625 -4.6875 L 13 -11.671875 C 13.375 -12.515625 13.601562 -13.078125 13.6875 -13.359375 C 13.769531 -13.648438 13.8125 -13.894531 13.8125 -14.09375 C 13.8125 -14.320312 13.75 -14.523438 13.625 -14.703125 C 13.507812 -14.890625 13.332031 -15.03125 13.09375 -15.125 C 12.757812 -15.25 12.316406 -15.3125 11.765625 -15.3125 L 11.765625 -15.75 Z M 16.9375 -15.75 "/></g></g></g><g fill="#ffffff" fill-opacity="1"><g transform="translate(68.78884, 21.170969)"><g><path d="M 8.703125 -0.421875 L 8.703125 0 L 0.46875 0 L 0.46875 -0.421875 L 1 -0.421875 C 1.457031 -0.421875 1.828125 -0.503906 2.109375 -0.671875 C 2.304688 -0.785156 2.457031 -0.972656 2.5625 -1.234375 C 2.644531 -1.421875 2.6875 -1.90625 2.6875 -2.6875 L 2.6875 -13.046875 C 2.6875 -13.859375 2.644531 -14.363281 2.5625 -14.5625 C 2.476562 -14.757812 2.304688 -14.929688 2.046875 -15.078125 C 1.785156 -15.234375 1.4375 -15.3125 1 -15.3125 L 0.46875 -15.3125 L 0.46875 -15.75 L 8.703125 -15.75 L 8.703125 -15.3125 L 8.1875 -15.3125 C 7.726562 -15.3125 7.359375 -15.234375 7.078125 -15.078125 C 6.878906 -14.960938 6.722656 -14.773438 6.609375 -14.515625 C 6.523438 -14.328125 6.484375 -13.835938 6.484375 -13.046875 L 6.484375 -2.6875 C 6.484375 -1.882812 6.523438 -1.378906 6.609375 -1.171875 C 6.703125 -0.972656 6.878906 -0.796875 7.140625 -0.640625 C 7.398438 -0.492188 7.75 -0.421875 8.1875 -0.421875 Z M 8.703125 -0.421875 "/></g></g></g><g fill="#ffffff" fill-opacity="1"><g transform="translate(78.044601, 21.170969)"><g><path d="M 6.3125 -7.171875 L 6.3125 -2.765625 C 6.3125 -1.910156 6.363281 -1.375 6.46875 -1.15625 C 6.570312 -0.9375 6.753906 -0.757812 7.015625 -0.625 C 7.285156 -0.488281 7.78125 -0.421875 8.5 -0.421875 L 8.5 0 L 0.4375 0 L 0.4375 -0.421875 C 1.164062 -0.421875 1.660156 -0.488281 1.921875 -0.625 C 2.179688 -0.769531 2.363281 -0.945312 2.46875 -1.15625 C 2.570312 -1.375 2.625 -1.910156 2.625 -2.765625 L 2.625 -12.984375 C 2.625 -13.835938 2.570312 -14.375 2.46875 -14.59375 C 2.363281 -14.8125 2.175781 -14.984375 1.90625 -15.109375 C 1.644531 -15.242188 1.15625 -15.3125 0.4375 -15.3125 L 0.4375 -15.75 L 7.75 -15.75 C 9.65625 -15.75 11.050781 -15.613281 11.9375 -15.34375 C 12.820312 -15.082031 13.539062 -14.597656 14.09375 -13.890625 C 14.65625 -13.179688 14.9375 -12.351562 14.9375 -11.40625 C 14.9375 -10.238281 14.515625 -9.273438 13.671875 -8.515625 C 13.140625 -8.035156 12.394531 -7.675781 11.4375 -7.4375 L 15.21875 -2.109375 C 15.71875 -1.421875 16.070312 -0.992188 16.28125 -0.828125 C 16.59375 -0.585938 16.960938 -0.453125 17.390625 -0.421875 L 17.390625 0 L 12.421875 0 L 7.34375 -7.171875 Z M 6.3125 -14.890625 L 6.3125 -8 L 6.984375 -8 C 8.054688 -8 8.859375 -8.097656 9.390625 -8.296875 C 9.921875 -8.492188 10.335938 -8.847656 10.640625 -9.359375 C 10.953125 -9.878906 11.109375 -10.550781 11.109375 -11.375 C 11.109375 -12.570312 10.828125 -13.457031 10.265625 -14.03125 C 9.703125 -14.601562 8.800781 -14.890625 7.5625 -14.890625 Z M 6.3125 -14.890625 "/></g></g></g><g fill="#ffffff" fill-opacity="1"><g transform="translate(95.220594, 21.170969)"><g><path d="M 6.484375 -14.84375 L 6.484375 -8.4375 L 6.796875 -8.4375 C 7.796875 -8.4375 8.519531 -8.75 8.96875 -9.375 C 9.414062 -10 9.703125 -10.921875 9.828125 -12.140625 L 10.265625 -12.140625 L 10.265625 -3.90625 L 9.828125 -3.90625 C 9.734375 -4.800781 9.535156 -5.535156 9.234375 -6.109375 C 8.941406 -6.679688 8.597656 -7.066406 8.203125 -7.265625 C 7.804688 -7.460938 7.234375 -7.5625 6.484375 -7.5625 L 6.484375 -3.125 C 6.484375 -2.257812 6.519531 -1.726562 6.59375 -1.53125 C 6.664062 -1.34375 6.800781 -1.1875 7 -1.0625 C 7.195312 -0.9375 7.523438 -0.875 7.984375 -0.875 L 8.921875 -0.875 C 10.390625 -0.875 11.566406 -1.210938 12.453125 -1.890625 C 13.335938 -2.578125 13.972656 -3.613281 14.359375 -5 L 14.796875 -5 L 14.078125 0 L 0.46875 0 L 0.46875 -0.421875 L 1 -0.421875 C 1.457031 -0.421875 1.828125 -0.503906 2.109375 -0.671875 C 2.304688 -0.785156 2.457031 -0.972656 2.5625 -1.234375 C 2.644531 -1.421875 2.6875 -1.90625 2.6875 -2.6875 L 2.6875 -13.046875 C 2.6875 -13.765625 2.671875 -14.203125 2.640625 -14.359375 C 2.554688 -14.628906 2.410156 -14.835938 2.203125 -14.984375 C 1.910156 -15.203125 1.507812 -15.3125 1 -15.3125 L 0.46875 -15.3125 L 0.46875 -15.75 L 13.65625 -15.75 L 13.65625 -11.09375 L 13.21875 -11.09375 C 12.988281 -12.226562 12.671875 -13.039062 12.265625 -13.53125 C 11.859375 -14.03125 11.285156 -14.394531 10.546875 -14.625 C 10.109375 -14.769531 9.296875 -14.84375 8.109375 -14.84375 Z M 6.484375 -14.84375 "/></g></g></g><g fill="#ffffff" fill-opacity="1"><g transform="translate(111.084286, 21.170969)"><g/></g></g><g fill="#ffffff" fill-opacity="1"><g transform="translate(117.030267, 21.170969)"><g><path d="M 11.171875 -16.109375 L 11.296875 -10.859375 L 10.828125 -10.859375 C 10.597656 -12.171875 10.039062 -13.226562 9.15625 -14.03125 C 8.28125 -14.832031 7.332031 -15.234375 6.3125 -15.234375 C 5.519531 -15.234375 4.894531 -15.019531 4.4375 -14.59375 C 3.976562 -14.175781 3.75 -13.691406 3.75 -13.140625 C 3.75 -12.796875 3.832031 -12.488281 4 -12.21875 C 4.21875 -11.851562 4.578125 -11.492188 5.078125 -11.140625 C 5.441406 -10.878906 6.28125 -10.425781 7.59375 -9.78125 C 9.4375 -8.875 10.679688 -8.019531 11.328125 -7.21875 C 11.960938 -6.40625 12.28125 -5.484375 12.28125 -4.453125 C 12.28125 -3.128906 11.765625 -1.992188 10.734375 -1.046875 C 9.710938 -0.0976562 8.410156 0.375 6.828125 0.375 C 6.328125 0.375 5.859375 0.320312 5.421875 0.21875 C 4.984375 0.113281 4.429688 -0.0703125 3.765625 -0.34375 C 3.390625 -0.5 3.082031 -0.578125 2.84375 -0.578125 C 2.644531 -0.578125 2.429688 -0.5 2.203125 -0.34375 C 1.984375 -0.1875 1.800781 0.046875 1.65625 0.359375 L 1.234375 0.359375 L 1.234375 -5.578125 L 1.65625 -5.578125 C 2 -3.910156 2.65625 -2.632812 3.625 -1.75 C 4.601562 -0.875 5.648438 -0.4375 6.765625 -0.4375 C 7.628906 -0.4375 8.316406 -0.671875 8.828125 -1.140625 C 9.347656 -1.617188 9.609375 -2.171875 9.609375 -2.796875 C 9.609375 -3.171875 9.507812 -3.53125 9.3125 -3.875 C 9.113281 -4.226562 8.8125 -4.5625 8.40625 -4.875 C 8.007812 -5.1875 7.300781 -5.59375 6.28125 -6.09375 C 4.851562 -6.800781 3.820312 -7.398438 3.1875 -7.890625 C 2.5625 -8.390625 2.082031 -8.941406 1.75 -9.546875 C 1.414062 -10.160156 1.25 -10.835938 1.25 -11.578125 C 1.25 -12.828125 1.707031 -13.894531 2.625 -14.78125 C 3.539062 -15.664062 4.703125 -16.109375 6.109375 -16.109375 C 6.617188 -16.109375 7.113281 -16.046875 7.59375 -15.921875 C 7.957031 -15.828125 8.398438 -15.65625 8.921875 -15.40625 C 9.441406 -15.15625 9.804688 -15.03125 10.015625 -15.03125 C 10.222656 -15.03125 10.382812 -15.085938 10.5 -15.203125 C 10.613281 -15.328125 10.722656 -15.628906 10.828125 -16.109375 Z M 11.171875 -16.109375 "/></g></g></g><g fill="#ffffff" fill-opacity="1"><g transform="translate(130.257757, 21.170969)"><g><path d="M 15 -15.75 L 15 -11.484375 L 14.578125 -11.484375 C 14.335938 -12.460938 14.066406 -13.164062 13.765625 -13.59375 C 13.460938 -14.03125 13.046875 -14.375 12.515625 -14.625 C 12.222656 -14.769531 11.707031 -14.84375 10.96875 -14.84375 L 9.796875 -14.84375 L 9.796875 -2.6875 C 9.796875 -1.882812 9.835938 -1.378906 9.921875 -1.171875 C 10.015625 -0.972656 10.191406 -0.796875 10.453125 -0.640625 C 10.710938 -0.492188 11.066406 -0.421875 11.515625 -0.421875 L 12.046875 -0.421875 L 12.046875 0 L 3.796875 0 L 3.796875 -0.421875 L 4.3125 -0.421875 C 4.769531 -0.421875 5.140625 -0.503906 5.421875 -0.671875 C 5.617188 -0.785156 5.78125 -0.972656 5.90625 -1.234375 C 5.988281 -1.421875 6.03125 -1.90625 6.03125 -2.6875 L 6.03125 -14.84375 L 4.890625 -14.84375 C 3.828125 -14.84375 3.054688 -14.617188 2.578125 -14.171875 C 1.898438 -13.535156 1.472656 -12.640625 1.296875 -11.484375 L 0.859375 -11.484375 L 0.859375 -15.75 Z M 15 -15.75 "/></g></g></g><g fill="#ffffff" fill-opacity="1"><g transform="translate(146.121449, 21.170969)"><g><path d="M 0.5625 -15.75 L 8.6875 -15.75 L 8.6875 -15.3125 L 8.28125 -15.3125 C 7.664062 -15.3125 7.242188 -15.25 7.015625 -15.125 C 6.785156 -15 6.625 -14.820312 6.53125 -14.59375 C 6.4375 -14.375 6.390625 -13.8125 6.390625 -12.90625 L 6.390625 -5.203125 C 6.390625 -3.796875 6.492188 -2.863281 6.703125 -2.40625 C 6.921875 -1.945312 7.269531 -1.566406 7.75 -1.265625 C 8.238281 -0.960938 8.859375 -0.8125 9.609375 -0.8125 C 10.453125 -0.8125 11.175781 -1.003906 11.78125 -1.390625 C 12.382812 -1.773438 12.832031 -2.300781 13.125 -2.96875 C 13.425781 -3.644531 13.578125 -4.816406 13.578125 -6.484375 L 13.578125 -12.90625 C 13.578125 -13.613281 13.503906 -14.117188 13.359375 -14.421875 C 13.210938 -14.722656 13.023438 -14.929688 12.796875 -15.046875 C 12.453125 -15.222656 11.960938 -15.3125 11.328125 -15.3125 L 11.328125 -15.75 L 16.765625 -15.75 L 16.765625 -15.3125 L 16.4375 -15.3125 C 16 -15.3125 15.628906 -15.222656 15.328125 -15.046875 C 15.035156 -14.867188 14.828125 -14.601562 14.703125 -14.25 C 14.597656 -14 14.546875 -13.550781 14.546875 -12.90625 L 14.546875 -6.9375 C 14.546875 -5.082031 14.421875 -3.742188 14.171875 -2.921875 C 13.929688 -2.109375 13.335938 -1.351562 12.390625 -0.65625 C 11.453125 0.03125 10.164062 0.375 8.53125 0.375 C 7.164062 0.375 6.113281 0.191406 5.375 -0.171875 C 4.363281 -0.671875 3.644531 -1.304688 3.21875 -2.078125 C 2.800781 -2.847656 2.59375 -3.890625 2.59375 -5.203125 L 2.59375 -12.90625 C 2.59375 -13.8125 2.539062 -14.375 2.4375 -14.59375 C 2.34375 -14.820312 2.171875 -15 1.921875 -15.125 C 1.679688 -15.257812 1.226562 -15.320312 0.5625 -15.3125 Z M 0.5625 -15.75 "/></g></g></g><g fill="#ffffff" fill-opacity="1"><g transform="translate(163.297442, 21.170969)"><g><path d="M 0.3125 0 L 0.3125 -0.421875 L 0.84375 -0.421875 C 1.289062 -0.421875 1.632812 -0.492188 1.875 -0.640625 C 2.125 -0.785156 2.304688 -0.984375 2.421875 -1.234375 C 2.492188 -1.390625 2.53125 -1.875 2.53125 -2.6875 L 2.53125 -13.046875 C 2.53125 -13.859375 2.488281 -14.363281 2.40625 -14.5625 C 2.320312 -14.757812 2.148438 -14.929688 1.890625 -15.078125 C 1.628906 -15.234375 1.28125 -15.3125 0.84375 -15.3125 L 0.3125 -15.3125 L 0.3125 -15.75 L 7.359375 -15.75 C 9.242188 -15.75 10.757812 -15.492188 11.90625 -14.984375 C 13.300781 -14.347656 14.359375 -13.394531 15.078125 -12.125 C 15.804688 -10.863281 16.171875 -9.429688 16.171875 -7.828125 C 16.171875 -6.722656 15.992188 -5.703125 15.640625 -4.765625 C 15.285156 -3.835938 14.820312 -3.066406 14.25 -2.453125 C 13.6875 -1.847656 13.035156 -1.359375 12.296875 -0.984375 C 11.554688 -0.617188 10.65625 -0.335938 9.59375 -0.140625 C 9.125 -0.046875 8.378906 0 7.359375 0 Z M 6.3125 -14.859375 L 6.3125 -2.5625 C 6.3125 -1.914062 6.34375 -1.519531 6.40625 -1.375 C 6.46875 -1.226562 6.570312 -1.113281 6.71875 -1.03125 C 6.925781 -0.914062 7.226562 -0.859375 7.625 -0.859375 C 8.914062 -0.859375 9.90625 -1.300781 10.59375 -2.1875 C 11.519531 -3.375 11.984375 -5.222656 11.984375 -7.734375 C 11.984375 -9.753906 11.664062 -11.367188 11.03125 -12.578125 C 10.53125 -13.523438 9.882812 -14.164062 9.09375 -14.5 C 8.53125 -14.738281 7.601562 -14.859375 6.3125 -14.859375 Z M 6.3125 -14.859375 "/></g></g></g><g fill="#ffffff" fill-opacity="1"><g transform="translate(180.473436, 21.170969)"><g><path d="M 6.484375 -14.84375 L 6.484375 -8.4375 L 6.796875 -8.4375 C 7.796875 -8.4375 8.519531 -8.75 8.96875 -9.375 C 9.414062 -10 9.703125 -10.921875 9.828125 -12.140625 L 10.265625 -12.140625 L 10.265625 -3.90625 L 9.828125 -3.90625 C 9.734375 -4.800781 9.535156 -5.535156 9.234375 -6.109375 C 8.941406 -6.679688 8.597656 -7.066406 8.203125 -7.265625 C 7.804688 -7.460938 7.234375 -7.5625 6.484375 -7.5625 L 6.484375 -3.125 C 6.484375 -2.257812 6.519531 -1.726562 6.59375 -1.53125 C 6.664062 -1.34375 6.800781 -1.1875 7 -1.0625 C 7.195312 -0.9375 7.523438 -0.875 7.984375 -0.875 L 8.921875 -0.875 C 10.390625 -0.875 11.566406 -1.210938 12.453125 -1.890625 C 13.335938 -2.578125 13.972656 -3.613281 14.359375 -5 L 14.796875 -5 L 14.078125 0 L 0.46875 0 L 0.46875 -0.421875 L 1 -0.421875 C 1.457031 -0.421875 1.828125 -0.503906 2.109375 -0.671875 C 2.304688 -0.785156 2.457031 -0.972656 2.5625 -1.234375 C 2.644531 -1.421875 2.6875 -1.90625 2.6875 -2.6875 L 2.6875 -13.046875 C 2.6875 -13.765625 2.671875 -14.203125 2.640625 -14.359375 C 2.554688 -14.628906 2.410156 -14.835938 2.203125 -14.984375 C 1.910156 -15.203125 1.507812 -15.3125 1 -15.3125 L 0.46875 -15.3125 L 0.46875 -15.75 L 13.65625 -15.75 L 13.65625 -11.09375 L 13.21875 -11.09375 C 12.988281 -12.226562 12.671875 -13.039062 12.265625 -13.53125 C 11.859375 -14.03125 11.285156 -14.394531 10.546875 -14.625 C 10.109375 -14.769531 9.296875 -14.84375 8.109375 -14.84375 Z M 6.484375 -14.84375 "/></g></g></g><g fill="#ffffff" fill-opacity="1"><g transform="translate(196.337138, 21.170969)"><g><path d="M 5.921875 -15.75 L 13.6875 -5.984375 L 13.6875 -12.75 C 13.6875 -13.695312 13.550781 -14.335938 13.28125 -14.671875 C 12.914062 -15.117188 12.296875 -15.332031 11.421875 -15.3125 L 11.421875 -15.75 L 16.609375 -15.75 L 16.609375 -15.3125 C 15.953125 -15.226562 15.507812 -15.117188 15.28125 -14.984375 C 15.050781 -14.847656 14.867188 -14.625 14.734375 -14.3125 C 14.609375 -14.007812 14.546875 -13.488281 14.546875 -12.75 L 14.546875 0.359375 L 14.15625 0.359375 L 3.5 -12.75 L 3.5 -2.734375 C 3.5 -1.828125 3.707031 -1.210938 4.125 -0.890625 C 4.539062 -0.578125 5.015625 -0.421875 5.546875 -0.421875 L 5.921875 -0.421875 L 5.921875 0 L 0.34375 0 L 0.34375 -0.421875 C 1.207031 -0.429688 1.804688 -0.609375 2.140625 -0.953125 C 2.484375 -1.304688 2.65625 -1.898438 2.65625 -2.734375 L 2.65625 -13.859375 L 2.328125 -14.265625 C 1.992188 -14.679688 1.695312 -14.957031 1.4375 -15.09375 C 1.1875 -15.226562 0.820312 -15.300781 0.34375 -15.3125 L 0.34375 -15.75 Z M 5.921875 -15.75 "/></g></g></g><g fill="#ffffff" fill-opacity="1"><g transform="translate(213.51311, 21.170969)"><g><path d="M 15 -15.75 L 15 -11.484375 L 14.578125 -11.484375 C 14.335938 -12.460938 14.066406 -13.164062 13.765625 -13.59375 C 13.460938 -14.03125 13.046875 -14.375 12.515625 -14.625 C 12.222656 -14.769531 11.707031 -14.84375 10.96875 -14.84375 L 9.796875 -14.84375 L 9.796875 -2.6875 C 9.796875 -1.882812 9.835938 -1.378906 9.921875 -1.171875 C 10.015625 -0.972656 10.191406 -0.796875 10.453125 -0.640625 C 10.710938 -0.492188 11.066406 -0.421875 11.515625 -0.421875 L 12.046875 -0.421875 L 12.046875 0 L 3.796875 0 L 3.796875 -0.421875 L 4.3125 -0.421875 C 4.769531 -0.421875 5.140625 -0.503906 5.421875 -0.671875 C 5.617188 -0.785156 5.78125 -0.972656 5.90625 -1.234375 C 5.988281 -1.421875 6.03125 -1.90625 6.03125 -2.6875 L 6.03125 -14.84375 L 4.890625 -14.84375 C 3.828125 -14.84375 3.054688 -14.617188 2.578125 -14.171875 C 1.898438 -13.535156 1.472656 -12.640625 1.296875 -11.484375 L 0.859375 -11.484375 L 0.859375 -15.75 Z M 15 -15.75 "/></g></g></g><g fill="#ffffff" fill-opacity="1"><g transform="translate(228.947083, 21.170969)"><g/></g></g><g fill="#ffffff" fill-opacity="1"><g transform="translate(234.893065, 21.170969)"><g><path d="M 15.875 -16.109375 L 15.875 -10.640625 L 15.421875 -10.640625 C 15.078125 -12.066406 14.441406 -13.160156 13.515625 -13.921875 C 12.585938 -14.679688 11.535156 -15.0625 10.359375 -15.0625 C 9.378906 -15.0625 8.476562 -14.773438 7.65625 -14.203125 C 6.832031 -13.640625 6.234375 -12.90625 5.859375 -12 C 5.367188 -10.820312 5.125 -9.519531 5.125 -8.09375 C 5.125 -6.6875 5.300781 -5.40625 5.65625 -4.25 C 6.007812 -3.09375 6.566406 -2.21875 7.328125 -1.625 C 8.085938 -1.03125 9.070312 -0.734375 10.28125 -0.734375 C 11.269531 -0.734375 12.175781 -0.945312 13 -1.375 C 13.820312 -1.8125 14.691406 -2.5625 15.609375 -3.625 L 15.609375 -2.265625 C 14.722656 -1.335938 13.800781 -0.664062 12.84375 -0.25 C 11.894531 0.15625 10.78125 0.359375 9.5 0.359375 C 7.820312 0.359375 6.328125 0.0234375 5.015625 -0.640625 C 3.710938 -1.316406 2.707031 -2.285156 2 -3.546875 C 1.289062 -4.816406 0.9375 -6.160156 0.9375 -7.578125 C 0.9375 -9.078125 1.328125 -10.5 2.109375 -11.84375 C 2.898438 -13.195312 3.960938 -14.242188 5.296875 -14.984375 C 6.628906 -15.734375 8.050781 -16.109375 9.5625 -16.109375 C 10.664062 -16.109375 11.832031 -15.867188 13.0625 -15.390625 C 13.769531 -15.109375 14.222656 -14.96875 14.421875 -14.96875 C 14.671875 -14.96875 14.882812 -15.054688 15.0625 -15.234375 C 15.25 -15.421875 15.367188 -15.710938 15.421875 -16.109375 Z M 15.875 -16.109375 "/></g></g></g><g fill="#ffffff" fill-opacity="1"><g transform="translate(252.06908, 21.170969)"><g><path d="M 9.1875 -15.96875 C 11.695312 -16.0625 13.734375 -15.328125 15.296875 -13.765625 C 16.867188 -12.210938 17.65625 -10.269531 17.65625 -7.9375 C 17.65625 -5.9375 17.066406 -4.175781 15.890625 -2.65625 C 14.347656 -0.644531 12.164062 0.359375 9.34375 0.359375 C 6.507812 0.359375 4.316406 -0.597656 2.765625 -2.515625 C 1.535156 -4.035156 0.921875 -5.835938 0.921875 -7.921875 C 0.921875 -10.253906 1.71875 -12.203125 3.3125 -13.765625 C 4.90625 -15.328125 6.863281 -16.0625 9.1875 -15.96875 Z M 9.328125 -15.21875 C 7.890625 -15.21875 6.789062 -14.484375 6.03125 -13.015625 C 5.425781 -11.804688 5.125 -10.070312 5.125 -7.8125 C 5.125 -5.125 5.59375 -3.140625 6.53125 -1.859375 C 7.195312 -0.960938 8.117188 -0.515625 9.296875 -0.515625 C 10.097656 -0.515625 10.765625 -0.707031 11.296875 -1.09375 C 11.972656 -1.582031 12.5 -2.367188 12.875 -3.453125 C 13.257812 -4.546875 13.453125 -5.96875 13.453125 -7.71875 C 13.453125 -9.800781 13.257812 -11.359375 12.875 -12.390625 C 12.488281 -13.429688 11.992188 -14.160156 11.390625 -14.578125 C 10.796875 -15.003906 10.109375 -15.21875 9.328125 -15.21875 Z M 9.328125 -15.21875 "/></g></g></g><g fill="#ffffff" fill-opacity="1"><g transform="translate(270.568972, 21.170969)"><g><path d="M 11.328125 -5.359375 L 15.609375 -15.75 L 22.015625 -15.75 L 22.015625 -15.3125 L 21.5 -15.3125 C 21.039062 -15.3125 20.671875 -15.234375 20.390625 -15.078125 C 20.191406 -14.960938 20.035156 -14.78125 19.921875 -14.53125 C 19.835938 -14.34375 19.796875 -13.859375 19.796875 -13.078125 L 19.796875 -2.6875 C 19.796875 -1.882812 19.835938 -1.378906 19.921875 -1.171875 C 20.003906 -0.972656 20.175781 -0.796875 20.4375 -0.640625 C 20.707031 -0.492188 21.0625 -0.421875 21.5 -0.421875 L 22.015625 -0.421875 L 22.015625 0 L 13.796875 0 L 13.796875 -0.421875 L 14.3125 -0.421875 C 14.769531 -0.421875 15.140625 -0.503906 15.421875 -0.671875 C 15.617188 -0.785156 15.773438 -0.972656 15.890625 -1.234375 C 15.972656 -1.421875 16.015625 -1.90625 16.015625 -2.6875 L 16.015625 -14.359375 L 9.96875 0 L 9.703125 0 L 3.5625 -14.265625 L 3.5625 -3.171875 C 3.5625 -2.398438 3.582031 -1.921875 3.625 -1.734375 C 3.726562 -1.347656 3.945312 -1.03125 4.28125 -0.78125 C 4.613281 -0.539062 5.140625 -0.421875 5.859375 -0.421875 L 5.859375 0 L 0.46875 0 L 0.46875 -0.421875 L 0.640625 -0.421875 C 0.984375 -0.421875 1.304688 -0.476562 1.609375 -0.59375 C 1.910156 -0.71875 2.140625 -0.878906 2.296875 -1.078125 C 2.453125 -1.273438 2.570312 -1.554688 2.65625 -1.921875 C 2.675781 -2.015625 2.6875 -2.410156 2.6875 -3.109375 L 2.6875 -13.078125 C 2.6875 -13.867188 2.640625 -14.363281 2.546875 -14.5625 C 2.460938 -14.757812 2.289062 -14.929688 2.03125 -15.078125 C 1.769531 -15.234375 1.414062 -15.3125 0.96875 -15.3125 L 0.46875 -15.3125 L 0.46875 -15.75 L 6.90625 -15.75 Z M 11.328125 -5.359375 "/></g></g></g><g fill="#ffffff" fill-opacity="1"><g transform="translate(293.01739, 21.170969)"><g><path d="M 6.421875 -7.125 L 6.421875 -2.765625 C 6.421875 -1.910156 6.472656 -1.375 6.578125 -1.15625 C 6.679688 -0.9375 6.863281 -0.757812 7.125 -0.625 C 7.394531 -0.488281 7.890625 -0.421875 8.609375 -0.421875 L 8.609375 0 L 0.609375 0 L 0.609375 -0.421875 C 1.335938 -0.421875 1.828125 -0.488281 2.078125 -0.625 C 2.335938 -0.769531 2.519531 -0.945312 2.625 -1.15625 C 2.726562 -1.375 2.78125 -1.910156 2.78125 -2.765625 L 2.78125 -12.984375 C 2.78125 -13.835938 2.726562 -14.375 2.625 -14.59375 C 2.519531 -14.8125 2.335938 -14.984375 2.078125 -15.109375 C 1.816406 -15.242188 1.328125 -15.3125 0.609375 -15.3125 L 0.609375 -15.75 L 7.46875 -15.75 C 9.726562 -15.75 11.347656 -15.34375 12.328125 -14.53125 C 13.316406 -13.726562 13.8125 -12.722656 13.8125 -11.515625 C 13.8125 -10.492188 13.492188 -9.617188 12.859375 -8.890625 C 12.222656 -8.160156 11.347656 -7.664062 10.234375 -7.40625 C 9.484375 -7.21875 8.210938 -7.125 6.421875 -7.125 Z M 6.421875 -14.84375 L 6.421875 -8.03125 C 6.671875 -8.019531 6.863281 -8.015625 7 -8.015625 C 7.945312 -8.015625 8.675781 -8.296875 9.1875 -8.859375 C 9.695312 -9.421875 9.953125 -10.289062 9.953125 -11.46875 C 9.953125 -12.632812 9.695312 -13.488281 9.1875 -14.03125 C 8.675781 -14.570312 7.910156 -14.84375 6.890625 -14.84375 Z M 6.421875 -14.84375 "/></g></g></g><g fill="#ffffff" fill-opacity="1"><g transform="translate(305.780242, 21.170969)"><g><path d="M 9.890625 -4.484375 L 4.328125 -4.484375 L 3.671875 -2.953125 C 3.453125 -2.441406 3.34375 -2.019531 3.34375 -1.6875 C 3.34375 -1.238281 3.519531 -0.910156 3.875 -0.703125 C 4.082031 -0.578125 4.597656 -0.484375 5.421875 -0.421875 L 5.421875 0 L 0.1875 0 L 0.1875 -0.421875 C 0.75 -0.515625 1.210938 -0.75 1.578125 -1.125 C 1.941406 -1.507812 2.390625 -2.300781 2.921875 -3.5 L 8.5625 -16.078125 L 8.78125 -16.078125 L 14.453125 -3.15625 C 14.992188 -1.9375 15.441406 -1.164062 15.796875 -0.84375 C 16.054688 -0.601562 16.425781 -0.460938 16.90625 -0.421875 L 16.90625 0 L 9.296875 0 L 9.296875 -0.421875 L 9.609375 -0.421875 C 10.210938 -0.421875 10.640625 -0.507812 10.890625 -0.6875 C 11.054688 -0.8125 11.140625 -0.988281 11.140625 -1.21875 C 11.140625 -1.351562 11.117188 -1.5 11.078125 -1.65625 C 11.054688 -1.71875 10.941406 -2.003906 10.734375 -2.515625 Z M 9.5 -5.34375 L 7.15625 -10.765625 L 4.734375 -5.34375 Z M 9.5 -5.34375 "/></g></g></g><g fill="#ffffff" fill-opacity="1"><g transform="translate(322.956235, 21.170969)"><g><path d="M 5.921875 -15.75 L 13.6875 -5.984375 L 13.6875 -12.75 C 13.6875 -13.695312 13.550781 -14.335938 13.28125 -14.671875 C 12.914062 -15.117188 12.296875 -15.332031 11.421875 -15.3125 L 11.421875 -15.75 L 16.609375 -15.75 L 16.609375 -15.3125 C 15.953125 -15.226562 15.507812 -15.117188 15.28125 -14.984375 C 15.050781 -14.847656 14.867188 -14.625 14.734375 -14.3125 C 14.609375 -14.007812 14.546875 -13.488281 14.546875 -12.75 L 14.546875 0.359375 L 14.15625 0.359375 L 3.5 -12.75 L 3.5 -2.734375 C 3.5 -1.828125 3.707031 -1.210938 4.125 -0.890625 C 4.539062 -0.578125 5.015625 -0.421875 5.546875 -0.421875 L 5.921875 -0.421875 L 5.921875 0 L 0.34375 0 L 0.34375 -0.421875 C 1.207031 -0.429688 1.804688 -0.609375 2.140625 -0.953125 C 2.484375 -1.304688 2.65625 -1.898438 2.65625 -2.734375 L 2.65625 -13.859375 L 2.328125 -14.265625 C 1.992188 -14.679688 1.695312 -14.957031 1.4375 -15.09375 C 1.1875 -15.226562 0.820312 -15.300781 0.34375 -15.3125 L 0.34375 -15.75 Z M 5.921875 -15.75 "/></g></g></g><g clip-path="url(#64739029cc)"><g fill="#ffffff" fill-opacity="1"><g transform="translate(340.132229, 21.170969)"><g><path d="M 16.90625 -15.75 L 16.90625 -15.3125 C 16.382812 -15.25 15.988281 -15.097656 15.71875 -14.859375 C 15.320312 -14.535156 14.707031 -13.648438 13.875 -12.203125 L 10.46875 -6.5 L 10.46875 -2.6875 C 10.46875 -1.875 10.507812 -1.367188 10.59375 -1.171875 C 10.675781 -0.972656 10.84375 -0.796875 11.09375 -0.640625 C 11.34375 -0.492188 11.675781 -0.421875 12.09375 -0.421875 L 12.984375 -0.421875 L 12.984375 0 L 4.140625 0 L 4.140625 -0.421875 L 4.96875 -0.421875 C 5.4375 -0.421875 5.804688 -0.503906 6.078125 -0.671875 C 6.273438 -0.785156 6.429688 -0.972656 6.546875 -1.234375 C 6.628906 -1.421875 6.671875 -1.90625 6.671875 -2.6875 L 6.671875 -5.859375 L 2.96875 -12.59375 C 2.238281 -13.925781 1.722656 -14.707031 1.421875 -14.9375 C 1.117188 -15.175781 0.710938 -15.300781 0.203125 -15.3125 L 0.203125 -15.75 L 7.75 -15.75 L 7.75 -15.3125 L 7.421875 -15.3125 C 6.960938 -15.3125 6.640625 -15.242188 6.453125 -15.109375 C 6.273438 -14.984375 6.1875 -14.847656 6.1875 -14.703125 C 6.1875 -14.421875 6.5 -13.71875 7.125 -12.59375 L 9.96875 -7.390625 L 12.796875 -12.140625 C 13.503906 -13.296875 13.859375 -14.0625 13.859375 -14.4375 C 13.859375 -14.65625 13.753906 -14.832031 13.546875 -14.96875 C 13.285156 -15.164062 12.800781 -15.28125 12.09375 -15.3125 L 12.09375 -15.75 Z M 16.90625 -15.75 "/></g></g></g></g></g></g></svg>