<svg xmlns="http://www.w3.org/2000/svg" xmlns:xlink="http://www.w3.org/1999/xlink" width="500" zoomAndPan="magnify" viewBox="0 0 375 374.999991" height="500" preserveAspectRatio="xMidYMid meet" version="1.0"><defs><g/></defs><g fill="#ffffff" fill-opacity="1"><g transform="translate(0.480473, 187.101199)"><g><path d="M 6.75 -7.5 L 6.75 -2.90625 C 6.75 -2.007812 6.800781 -1.441406 6.90625 -1.203125 C 7.019531 -0.972656 7.21875 -0.789062 7.5 -0.65625 C 7.78125 -0.519531 8.296875 -0.453125 9.046875 -0.453125 L 9.046875 0 L 0.640625 0 L 0.640625 -0.453125 C 1.398438 -0.453125 1.914062 -0.519531 2.1875 -0.65625 C 2.457031 -0.800781 2.648438 -0.988281 2.765625 -1.21875 C 2.878906 -1.445312 2.9375 -2.007812 2.9375 -2.90625 L 2.9375 -13.640625 C 2.9375 -14.535156 2.878906 -15.097656 2.765625 -15.328125 C 2.648438 -15.566406 2.453125 -15.753906 2.171875 -15.890625 C 1.898438 -16.023438 1.390625 -16.09375 0.640625 -16.09375 L 0.640625 -16.546875 L 7.84375 -16.546875 C 10.21875 -16.546875 11.921875 -16.125 12.953125 -15.28125 C 13.992188 -14.4375 14.515625 -13.378906 14.515625 -12.109375 C 14.515625 -11.035156 14.179688 -10.113281 13.515625 -9.34375 C 12.847656 -8.582031 11.925781 -8.0625 10.75 -7.78125 C 9.96875 -7.59375 8.632812 -7.5 6.75 -7.5 Z M 6.75 -15.59375 L 6.75 -8.453125 C 7.019531 -8.429688 7.222656 -8.421875 7.359375 -8.421875 C 8.347656 -8.421875 9.113281 -8.710938 9.65625 -9.296875 C 10.195312 -9.890625 10.46875 -10.804688 10.46875 -12.046875 C 10.46875 -13.273438 10.195312 -14.171875 9.65625 -14.734375 C 9.113281 -15.304688 8.3125 -15.59375 7.25 -15.59375 Z M 6.75 -15.59375 "/></g></g></g><g fill="#ffffff" fill-opacity="1"><g transform="translate(15.749088, 187.101199)"><g><path d="M 6.640625 -7.546875 L 6.640625 -2.90625 C 6.640625 -2.007812 6.691406 -1.441406 6.796875 -1.203125 C 6.910156 -0.972656 7.101562 -0.789062 7.375 -0.65625 C 7.65625 -0.519531 8.175781 -0.453125 8.9375 -0.453125 L 8.9375 0 L 0.46875 0 L 0.46875 -0.453125 C 1.226562 -0.453125 1.742188 -0.519531 2.015625 -0.65625 C 2.285156 -0.800781 2.476562 -0.988281 2.59375 -1.21875 C 2.707031 -1.445312 2.765625 -2.007812 2.765625 -2.90625 L 2.765625 -13.640625 C 2.765625 -14.535156 2.707031 -15.097656 2.59375 -15.328125 C 2.476562 -15.566406 2.28125 -15.753906 2 -15.890625 C 1.726562 -16.023438 1.21875 -16.09375 0.46875 -16.09375 L 0.46875 -16.546875 L 8.15625 -16.546875 C 10.15625 -16.546875 11.617188 -16.40625 12.546875 -16.125 C 13.472656 -15.851562 14.226562 -15.34375 14.8125 -14.59375 C 15.40625 -13.851562 15.703125 -12.984375 15.703125 -11.984375 C 15.703125 -10.765625 15.257812 -9.753906 14.375 -8.953125 C 13.8125 -8.453125 13.03125 -8.078125 12.03125 -7.828125 L 16 -2.21875 C 16.519531 -1.5 16.890625 -1.046875 17.109375 -0.859375 C 17.441406 -0.609375 17.832031 -0.472656 18.28125 -0.453125 L 18.28125 0 L 13.0625 0 L 7.734375 -7.546875 Z M 6.640625 -15.65625 L 6.640625 -8.40625 L 7.34375 -8.40625 C 8.46875 -8.40625 9.3125 -8.507812 9.875 -8.71875 C 10.4375 -8.925781 10.878906 -9.300781 11.203125 -9.84375 C 11.523438 -10.382812 11.6875 -11.09375 11.6875 -11.96875 C 11.6875 -13.226562 11.390625 -14.15625 10.796875 -14.75 C 10.203125 -15.351562 9.253906 -15.65625 7.953125 -15.65625 Z M 6.640625 -15.65625 "/></g></g></g><g fill="#ffffff" fill-opacity="1"><g transform="translate(33.800471, 187.101199)"><g><path d="M 9.65625 -16.78125 C 12.289062 -16.882812 14.429688 -16.117188 16.078125 -14.484375 C 17.734375 -12.847656 18.5625 -10.800781 18.5625 -8.34375 C 18.5625 -6.238281 17.945312 -4.390625 16.71875 -2.796875 C 15.082031 -0.679688 12.78125 0.375 9.8125 0.375 C 6.832031 0.375 4.53125 -0.632812 2.90625 -2.65625 C 1.625 -4.25 0.984375 -6.140625 0.984375 -8.328125 C 0.984375 -10.785156 1.816406 -12.832031 3.484375 -14.46875 C 5.160156 -16.113281 7.21875 -16.882812 9.65625 -16.78125 Z M 9.796875 -16 C 8.285156 -16 7.132812 -15.226562 6.34375 -13.6875 C 5.707031 -12.414062 5.390625 -10.59375 5.390625 -8.21875 C 5.390625 -5.394531 5.882812 -3.304688 6.875 -1.953125 C 7.5625 -1.003906 8.53125 -0.53125 9.78125 -0.53125 C 10.613281 -0.53125 11.3125 -0.734375 11.875 -1.140625 C 12.59375 -1.660156 13.148438 -2.492188 13.546875 -3.640625 C 13.941406 -4.785156 14.140625 -6.28125 14.140625 -8.125 C 14.140625 -10.3125 13.9375 -11.945312 13.53125 -13.03125 C 13.125 -14.113281 12.601562 -14.878906 11.96875 -15.328125 C 11.34375 -15.773438 10.617188 -16 9.796875 -16 Z M 9.796875 -16 "/></g></g></g><g fill="#ffffff" fill-opacity="1"><g transform="translate(53.243238, 187.101199)"><g><path d="M 17.796875 -16.546875 L 17.796875 -16.09375 C 17.191406 -16 16.65625 -15.679688 16.1875 -15.140625 C 15.84375 -14.734375 15.332031 -13.773438 14.65625 -12.265625 L 8.953125 0.375 L 8.5625 0.375 L 2.875 -12.78125 C 2.195312 -14.363281 1.738281 -15.289062 1.5 -15.5625 C 1.269531 -15.84375 0.835938 -16.019531 0.203125 -16.09375 L 0.203125 -16.546875 L 8.125 -16.546875 L 8.125 -16.09375 L 7.859375 -16.09375 C 7.140625 -16.09375 6.648438 -16.003906 6.390625 -15.828125 C 6.203125 -15.710938 6.109375 -15.535156 6.109375 -15.296875 C 6.109375 -15.148438 6.140625 -14.976562 6.203125 -14.78125 C 6.273438 -14.582031 6.5 -14.046875 6.875 -13.171875 L 10.40625 -4.9375 L 13.671875 -12.265625 C 14.066406 -13.148438 14.304688 -13.742188 14.390625 -14.046875 C 14.484375 -14.347656 14.53125 -14.601562 14.53125 -14.8125 C 14.53125 -15.0625 14.460938 -15.28125 14.328125 -15.46875 C 14.203125 -15.65625 14.007812 -15.796875 13.75 -15.890625 C 13.40625 -16.023438 12.941406 -16.09375 12.359375 -16.09375 L 12.359375 -16.546875 Z M 17.796875 -16.546875 "/></g></g></g><g fill="#ffffff" fill-opacity="1"><g transform="translate(71.29462, 187.101199)"><g><path d="M 9.15625 -0.453125 L 9.15625 0 L 0.5 0 L 0.5 -0.453125 L 1.046875 -0.453125 C 1.523438 -0.453125 1.910156 -0.535156 2.203125 -0.703125 C 2.421875 -0.816406 2.585938 -1.015625 2.703125 -1.296875 C 2.785156 -1.492188 2.828125 -2.003906 2.828125 -2.828125 L 2.828125 -13.71875 C 2.828125 -14.5625 2.78125 -15.085938 2.6875 -15.296875 C 2.601562 -15.515625 2.425781 -15.703125 2.15625 -15.859375 C 1.882812 -16.015625 1.515625 -16.09375 1.046875 -16.09375 L 0.5 -16.09375 L 0.5 -16.546875 L 9.15625 -16.546875 L 9.15625 -16.09375 L 8.609375 -16.09375 C 8.128906 -16.09375 7.742188 -16.007812 7.453125 -15.84375 C 7.234375 -15.726562 7.066406 -15.535156 6.953125 -15.265625 C 6.859375 -15.066406 6.8125 -14.550781 6.8125 -13.71875 L 6.8125 -2.828125 C 6.8125 -1.984375 6.859375 -1.453125 6.953125 -1.234375 C 7.046875 -1.023438 7.226562 -0.84375 7.5 -0.6875 C 7.769531 -0.53125 8.140625 -0.453125 8.609375 -0.453125 Z M 9.15625 -0.453125 "/></g></g></g><g fill="#ffffff" fill-opacity="1"><g transform="translate(81.022109, 187.101199)"><g><path d="M 6.640625 -7.546875 L 6.640625 -2.90625 C 6.640625 -2.007812 6.691406 -1.441406 6.796875 -1.203125 C 6.910156 -0.972656 7.101562 -0.789062 7.375 -0.65625 C 7.65625 -0.519531 8.175781 -0.453125 8.9375 -0.453125 L 8.9375 0 L 0.46875 0 L 0.46875 -0.453125 C 1.226562 -0.453125 1.742188 -0.519531 2.015625 -0.65625 C 2.285156 -0.800781 2.476562 -0.988281 2.59375 -1.21875 C 2.707031 -1.445312 2.765625 -2.007812 2.765625 -2.90625 L 2.765625 -13.640625 C 2.765625 -14.535156 2.707031 -15.097656 2.59375 -15.328125 C 2.476562 -15.566406 2.28125 -15.753906 2 -15.890625 C 1.726562 -16.023438 1.21875 -16.09375 0.46875 -16.09375 L 0.46875 -16.546875 L 8.15625 -16.546875 C 10.15625 -16.546875 11.617188 -16.40625 12.546875 -16.125 C 13.472656 -15.851562 14.226562 -15.34375 14.8125 -14.59375 C 15.40625 -13.851562 15.703125 -12.984375 15.703125 -11.984375 C 15.703125 -10.765625 15.257812 -9.753906 14.375 -8.953125 C 13.8125 -8.453125 13.03125 -8.078125 12.03125 -7.828125 L 16 -2.21875 C 16.519531 -1.5 16.890625 -1.046875 17.109375 -0.859375 C 17.441406 -0.609375 17.832031 -0.472656 18.28125 -0.453125 L 18.28125 0 L 13.0625 0 L 7.734375 -7.546875 Z M 6.640625 -15.65625 L 6.640625 -8.40625 L 7.34375 -8.40625 C 8.46875 -8.40625 9.3125 -8.507812 9.875 -8.71875 C 10.4375 -8.925781 10.878906 -9.300781 11.203125 -9.84375 C 11.523438 -10.382812 11.6875 -11.09375 11.6875 -11.96875 C 11.6875 -13.226562 11.390625 -14.15625 10.796875 -14.75 C 10.203125 -15.351562 9.253906 -15.65625 7.953125 -15.65625 Z M 6.640625 -15.65625 "/></g></g></g><g fill="#ffffff" fill-opacity="1"><g transform="translate(99.073492, 187.101199)"><g><path d="M 6.8125 -15.59375 L 6.8125 -8.859375 L 7.140625 -8.859375 C 8.191406 -8.859375 8.953125 -9.1875 9.421875 -9.84375 C 9.890625 -10.507812 10.191406 -11.484375 10.328125 -12.765625 L 10.796875 -12.765625 L 10.796875 -4.109375 L 10.328125 -4.109375 C 10.234375 -5.046875 10.023438 -5.816406 9.703125 -6.421875 C 9.390625 -7.023438 9.023438 -7.429688 8.609375 -7.640625 C 8.203125 -7.847656 7.601562 -7.953125 6.8125 -7.953125 L 6.8125 -3.28125 C 6.8125 -2.375 6.847656 -1.816406 6.921875 -1.609375 C 7.003906 -1.410156 7.148438 -1.242188 7.359375 -1.109375 C 7.566406 -0.984375 7.910156 -0.921875 8.390625 -0.921875 L 9.375 -0.921875 C 10.914062 -0.921875 12.148438 -1.273438 13.078125 -1.984375 C 14.015625 -2.703125 14.6875 -3.796875 15.09375 -5.265625 L 15.546875 -5.265625 L 14.8125 0 L 0.5 0 L 0.5 -0.453125 L 1.046875 -0.453125 C 1.523438 -0.453125 1.910156 -0.535156 2.203125 -0.703125 C 2.421875 -0.816406 2.585938 -1.015625 2.703125 -1.296875 C 2.785156 -1.492188 2.828125 -2.003906 2.828125 -2.828125 L 2.828125 -13.71875 C 2.828125 -14.46875 2.804688 -14.925781 2.765625 -15.09375 C 2.691406 -15.382812 2.539062 -15.609375 2.3125 -15.765625 C 2.007812 -15.984375 1.585938 -16.09375 1.046875 -16.09375 L 0.5 -16.09375 L 0.5 -16.546875 L 14.359375 -16.546875 L 14.359375 -11.65625 L 13.890625 -11.65625 C 13.648438 -12.851562 13.316406 -13.710938 12.890625 -14.234375 C 12.460938 -14.753906 11.859375 -15.132812 11.078125 -15.375 C 10.628906 -15.519531 9.773438 -15.59375 8.515625 -15.59375 Z M 6.8125 -15.59375 "/></g></g></g><g fill="#ffffff" fill-opacity="1"><g transform="translate(115.74569, 187.101199)"><g/></g></g><g fill="#ffffff" fill-opacity="1"><g transform="translate(121.994713, 187.101199)"><g><path d="M 11.75 -16.9375 L 11.875 -11.40625 L 11.375 -11.40625 C 11.132812 -12.789062 10.550781 -13.90625 9.625 -14.75 C 8.707031 -15.59375 7.710938 -16.015625 6.640625 -16.015625 C 5.804688 -16.015625 5.144531 -15.789062 4.65625 -15.34375 C 4.175781 -14.90625 3.9375 -14.394531 3.9375 -13.8125 C 3.9375 -13.445312 4.023438 -13.125 4.203125 -12.84375 C 4.429688 -12.457031 4.804688 -12.078125 5.328125 -11.703125 C 5.710938 -11.429688 6.597656 -10.957031 7.984375 -10.28125 C 9.921875 -9.320312 11.226562 -8.421875 11.90625 -7.578125 C 12.570312 -6.734375 12.90625 -5.765625 12.90625 -4.671875 C 12.90625 -3.285156 12.363281 -2.09375 11.28125 -1.09375 C 10.207031 -0.101562 8.835938 0.390625 7.171875 0.390625 C 6.648438 0.390625 6.15625 0.335938 5.6875 0.234375 C 5.226562 0.128906 4.648438 -0.0664062 3.953125 -0.359375 C 3.566406 -0.523438 3.242188 -0.609375 2.984375 -0.609375 C 2.773438 -0.609375 2.550781 -0.523438 2.3125 -0.359375 C 2.082031 -0.203125 1.894531 0.0390625 1.75 0.375 L 1.296875 0.375 L 1.296875 -5.875 L 1.75 -5.875 C 2.101562 -4.113281 2.789062 -2.769531 3.8125 -1.84375 C 4.832031 -0.925781 5.929688 -0.46875 7.109375 -0.46875 C 8.023438 -0.46875 8.753906 -0.710938 9.296875 -1.203125 C 9.835938 -1.703125 10.109375 -2.28125 10.109375 -2.9375 C 10.109375 -3.332031 10.003906 -3.710938 9.796875 -4.078125 C 9.585938 -4.441406 9.269531 -4.785156 8.84375 -5.109375 C 8.425781 -5.441406 7.679688 -5.875 6.609375 -6.40625 C 5.097656 -7.144531 4.015625 -7.773438 3.359375 -8.296875 C 2.703125 -8.816406 2.195312 -9.398438 1.84375 -10.046875 C 1.488281 -10.691406 1.3125 -11.398438 1.3125 -12.171875 C 1.3125 -13.484375 1.796875 -14.601562 2.765625 -15.53125 C 3.734375 -16.46875 4.953125 -16.9375 6.421875 -16.9375 C 6.960938 -16.9375 7.484375 -16.867188 7.984375 -16.734375 C 8.367188 -16.640625 8.832031 -16.457031 9.375 -16.1875 C 9.925781 -15.925781 10.3125 -15.796875 10.53125 -15.796875 C 10.75 -15.796875 10.914062 -15.859375 11.03125 -15.984375 C 11.15625 -16.117188 11.269531 -16.4375 11.375 -16.9375 Z M 11.75 -16.9375 "/></g></g></g><g fill="#ffffff" fill-opacity="1"><g transform="translate(135.896354, 187.101199)"><g><path d="M 15.765625 -16.546875 L 15.765625 -12.078125 L 15.328125 -12.078125 C 15.066406 -13.109375 14.773438 -13.847656 14.453125 -14.296875 C 14.140625 -14.753906 13.707031 -15.113281 13.15625 -15.375 C 12.851562 -15.519531 12.3125 -15.59375 11.53125 -15.59375 L 10.296875 -15.59375 L 10.296875 -2.828125 C 10.296875 -1.984375 10.34375 -1.453125 10.4375 -1.234375 C 10.53125 -1.023438 10.710938 -0.84375 10.984375 -0.6875 C 11.265625 -0.53125 11.640625 -0.453125 12.109375 -0.453125 L 12.65625 -0.453125 L 12.65625 0 L 3.984375 0 L 3.984375 -0.453125 L 4.546875 -0.453125 C 5.023438 -0.453125 5.410156 -0.535156 5.703125 -0.703125 C 5.910156 -0.816406 6.078125 -1.015625 6.203125 -1.296875 C 6.285156 -1.492188 6.328125 -2.003906 6.328125 -2.828125 L 6.328125 -15.59375 L 5.140625 -15.59375 C 4.023438 -15.59375 3.210938 -15.359375 2.703125 -14.890625 C 1.992188 -14.234375 1.550781 -13.296875 1.375 -12.078125 L 0.90625 -12.078125 L 0.90625 -16.546875 Z M 15.765625 -16.546875 "/></g></g></g><g fill="#ffffff" fill-opacity="1"><g transform="translate(152.568552, 187.101199)"><g><path d="M 0.59375 -16.546875 L 9.125 -16.546875 L 9.125 -16.09375 L 8.703125 -16.09375 C 8.054688 -16.09375 7.613281 -16.023438 7.375 -15.890625 C 7.132812 -15.765625 6.960938 -15.582031 6.859375 -15.34375 C 6.765625 -15.101562 6.71875 -14.515625 6.71875 -13.578125 L 6.71875 -5.46875 C 6.71875 -3.988281 6.828125 -3.007812 7.046875 -2.53125 C 7.273438 -2.050781 7.644531 -1.648438 8.15625 -1.328125 C 8.664062 -1.015625 9.3125 -0.859375 10.09375 -0.859375 C 10.988281 -0.859375 11.75 -1.054688 12.375 -1.453125 C 13.007812 -1.859375 13.484375 -2.414062 13.796875 -3.125 C 14.109375 -3.832031 14.265625 -5.066406 14.265625 -6.828125 L 14.265625 -13.578125 C 14.265625 -14.316406 14.1875 -14.84375 14.03125 -15.15625 C 13.882812 -15.476562 13.691406 -15.703125 13.453125 -15.828125 C 13.085938 -16.003906 12.570312 -16.09375 11.90625 -16.09375 L 11.90625 -16.546875 L 17.625 -16.546875 L 17.625 -16.09375 L 17.28125 -16.09375 C 16.820312 -16.09375 16.4375 -16 16.125 -15.8125 C 15.8125 -15.632812 15.585938 -15.359375 15.453125 -14.984375 C 15.347656 -14.722656 15.296875 -14.253906 15.296875 -13.578125 L 15.296875 -7.28125 C 15.296875 -5.34375 15.164062 -3.941406 14.90625 -3.078125 C 14.65625 -2.210938 14.03125 -1.414062 13.03125 -0.6875 C 12.039062 0.03125 10.6875 0.390625 8.96875 0.390625 C 7.539062 0.390625 6.4375 0.195312 5.65625 -0.1875 C 4.582031 -0.707031 3.828125 -1.375 3.390625 -2.1875 C 2.953125 -3 2.734375 -4.09375 2.734375 -5.46875 L 2.734375 -13.578125 C 2.734375 -14.523438 2.679688 -15.113281 2.578125 -15.34375 C 2.472656 -15.582031 2.289062 -15.769531 2.03125 -15.90625 C 1.769531 -16.039062 1.289062 -16.101562 0.59375 -16.09375 Z M 0.59375 -16.546875 "/></g></g></g><g fill="#ffffff" fill-opacity="1"><g transform="translate(170.619935, 187.101199)"><g><path d="M 0.328125 0 L 0.328125 -0.453125 L 0.875 -0.453125 C 1.351562 -0.453125 1.722656 -0.523438 1.984375 -0.671875 C 2.242188 -0.828125 2.429688 -1.035156 2.546875 -1.296875 C 2.617188 -1.460938 2.65625 -1.972656 2.65625 -2.828125 L 2.65625 -13.71875 C 2.65625 -14.5625 2.609375 -15.085938 2.515625 -15.296875 C 2.429688 -15.515625 2.253906 -15.703125 1.984375 -15.859375 C 1.710938 -16.015625 1.34375 -16.09375 0.875 -16.09375 L 0.328125 -16.09375 L 0.328125 -16.546875 L 7.734375 -16.546875 C 9.710938 -16.546875 11.304688 -16.28125 12.515625 -15.75 C 13.984375 -15.09375 15.097656 -14.09375 15.859375 -12.75 C 16.617188 -11.414062 17 -9.910156 17 -8.234375 C 17 -7.066406 16.8125 -5.992188 16.4375 -5.015625 C 16.0625 -4.035156 15.578125 -3.222656 14.984375 -2.578125 C 14.390625 -1.941406 13.703125 -1.429688 12.921875 -1.046875 C 12.148438 -0.660156 11.203125 -0.359375 10.078125 -0.140625 C 9.585938 -0.046875 8.804688 0 7.734375 0 Z M 6.640625 -15.609375 L 6.640625 -2.703125 C 6.640625 -2.015625 6.671875 -1.59375 6.734375 -1.4375 C 6.804688 -1.28125 6.914062 -1.164062 7.0625 -1.09375 C 7.28125 -0.96875 7.597656 -0.90625 8.015625 -0.90625 C 9.378906 -0.90625 10.421875 -1.367188 11.140625 -2.296875 C 12.109375 -3.546875 12.59375 -5.488281 12.59375 -8.125 C 12.59375 -10.25 12.257812 -11.945312 11.59375 -13.21875 C 11.0625 -14.207031 10.382812 -14.882812 9.5625 -15.25 C 8.96875 -15.5 7.992188 -15.617188 6.640625 -15.609375 Z M 6.640625 -15.609375 "/></g></g></g><g fill="#ffffff" fill-opacity="1"><g transform="translate(188.671318, 187.101199)"><g><path d="M 6.8125 -15.59375 L 6.8125 -8.859375 L 7.140625 -8.859375 C 8.191406 -8.859375 8.953125 -9.1875 9.421875 -9.84375 C 9.890625 -10.507812 10.191406 -11.484375 10.328125 -12.765625 L 10.796875 -12.765625 L 10.796875 -4.109375 L 10.328125 -4.109375 C 10.234375 -5.046875 10.023438 -5.816406 9.703125 -6.421875 C 9.390625 -7.023438 9.023438 -7.429688 8.609375 -7.640625 C 8.203125 -7.847656 7.601562 -7.953125 6.8125 -7.953125 L 6.8125 -3.28125 C 6.8125 -2.375 6.847656 -1.816406 6.921875 -1.609375 C 7.003906 -1.410156 7.148438 -1.242188 7.359375 -1.109375 C 7.566406 -0.984375 7.910156 -0.921875 8.390625 -0.921875 L 9.375 -0.921875 C 10.914062 -0.921875 12.148438 -1.273438 13.078125 -1.984375 C 14.015625 -2.703125 14.6875 -3.796875 15.09375 -5.265625 L 15.546875 -5.265625 L 14.8125 0 L 0.5 0 L 0.5 -0.453125 L 1.046875 -0.453125 C 1.523438 -0.453125 1.910156 -0.535156 2.203125 -0.703125 C 2.421875 -0.816406 2.585938 -1.015625 2.703125 -1.296875 C 2.785156 -1.492188 2.828125 -2.003906 2.828125 -2.828125 L 2.828125 -13.71875 C 2.828125 -14.46875 2.804688 -14.925781 2.765625 -15.09375 C 2.691406 -15.382812 2.539062 -15.609375 2.3125 -15.765625 C 2.007812 -15.984375 1.585938 -16.09375 1.046875 -16.09375 L 0.5 -16.09375 L 0.5 -16.546875 L 14.359375 -16.546875 L 14.359375 -11.65625 L 13.890625 -11.65625 C 13.648438 -12.851562 13.316406 -13.710938 12.890625 -14.234375 C 12.460938 -14.753906 11.859375 -15.132812 11.078125 -15.375 C 10.628906 -15.519531 9.773438 -15.59375 8.515625 -15.59375 Z M 6.8125 -15.59375 "/></g></g></g><g fill="#ffffff" fill-opacity="1"><g transform="translate(205.343527, 187.101199)"><g><path d="M 6.21875 -16.546875 L 14.390625 -6.28125 L 14.390625 -13.40625 C 14.390625 -14.394531 14.25 -15.066406 13.96875 -15.421875 C 13.570312 -15.890625 12.914062 -16.113281 12 -16.09375 L 12 -16.546875 L 17.46875 -16.546875 L 17.46875 -16.09375 C 16.769531 -16.007812 16.300781 -15.894531 16.0625 -15.75 C 15.820312 -15.613281 15.632812 -15.382812 15.5 -15.0625 C 15.363281 -14.738281 15.296875 -14.1875 15.296875 -13.40625 L 15.296875 0.375 L 14.875 0.375 L 3.6875 -13.40625 L 3.6875 -2.875 C 3.6875 -1.925781 3.90625 -1.285156 4.34375 -0.953125 C 4.78125 -0.617188 5.273438 -0.453125 5.828125 -0.453125 L 6.21875 -0.453125 L 6.21875 0 L 0.359375 0 L 0.359375 -0.453125 C 1.265625 -0.460938 1.894531 -0.648438 2.25 -1.015625 C 2.613281 -1.378906 2.796875 -2 2.796875 -2.875 L 2.796875 -14.5625 L 2.4375 -15 C 2.09375 -15.4375 1.785156 -15.722656 1.515625 -15.859375 C 1.242188 -16.003906 0.859375 -16.082031 0.359375 -16.09375 L 0.359375 -16.546875 Z M 6.21875 -16.546875 "/></g></g></g><g fill="#ffffff" fill-opacity="1"><g transform="translate(223.394887, 187.101199)"><g><path d="M 15.765625 -16.546875 L 15.765625 -12.078125 L 15.328125 -12.078125 C 15.066406 -13.109375 14.773438 -13.847656 14.453125 -14.296875 C 14.140625 -14.753906 13.707031 -15.113281 13.15625 -15.375 C 12.851562 -15.519531 12.3125 -15.59375 11.53125 -15.59375 L 10.296875 -15.59375 L 10.296875 -2.828125 C 10.296875 -1.984375 10.34375 -1.453125 10.4375 -1.234375 C 10.53125 -1.023438 10.710938 -0.84375 10.984375 -0.6875 C 11.265625 -0.53125 11.640625 -0.453125 12.109375 -0.453125 L 12.65625 -0.453125 L 12.65625 0 L 3.984375 0 L 3.984375 -0.453125 L 4.546875 -0.453125 C 5.023438 -0.453125 5.410156 -0.535156 5.703125 -0.703125 C 5.910156 -0.816406 6.078125 -1.015625 6.203125 -1.296875 C 6.285156 -1.492188 6.328125 -2.003906 6.328125 -2.828125 L 6.328125 -15.59375 L 5.140625 -15.59375 C 4.023438 -15.59375 3.210938 -15.359375 2.703125 -14.890625 C 1.992188 -14.234375 1.550781 -13.296875 1.375 -12.078125 L 0.90625 -12.078125 L 0.90625 -16.546875 Z M 15.765625 -16.546875 "/></g></g></g><g fill="#ffffff" fill-opacity="1"><g transform="translate(239.615466, 187.101199)"><g/></g></g><g fill="#ffffff" fill-opacity="1"><g transform="translate(245.864489, 187.101199)"><g><path d="M 16.6875 -16.9375 L 16.6875 -11.1875 L 16.21875 -11.1875 C 15.851562 -12.6875 15.179688 -13.832031 14.203125 -14.625 C 13.234375 -15.425781 12.128906 -15.828125 10.890625 -15.828125 C 9.859375 -15.828125 8.910156 -15.53125 8.046875 -14.9375 C 7.179688 -14.34375 6.550781 -13.566406 6.15625 -12.609375 C 5.644531 -11.378906 5.390625 -10.015625 5.390625 -8.515625 C 5.390625 -7.023438 5.570312 -5.671875 5.9375 -4.453125 C 6.3125 -3.242188 6.898438 -2.328125 7.703125 -1.703125 C 8.503906 -1.078125 9.535156 -0.765625 10.796875 -0.765625 C 11.835938 -0.765625 12.789062 -0.992188 13.65625 -1.453125 C 14.53125 -1.910156 15.445312 -2.695312 16.40625 -3.8125 L 16.40625 -2.375 C 15.476562 -1.40625 14.507812 -0.703125 13.5 -0.265625 C 12.5 0.160156 11.328125 0.375 9.984375 0.375 C 8.222656 0.375 6.65625 0.0195312 5.28125 -0.6875 C 3.90625 -1.394531 2.84375 -2.410156 2.09375 -3.734375 C 1.351562 -5.054688 0.984375 -6.46875 0.984375 -7.96875 C 0.984375 -9.550781 1.394531 -11.050781 2.21875 -12.46875 C 3.050781 -13.882812 4.164062 -14.984375 5.5625 -15.765625 C 6.96875 -16.546875 8.460938 -16.9375 10.046875 -16.9375 C 11.210938 -16.9375 12.441406 -16.679688 13.734375 -16.171875 C 14.484375 -15.878906 14.957031 -15.734375 15.15625 -15.734375 C 15.414062 -15.734375 15.640625 -15.828125 15.828125 -16.015625 C 16.023438 -16.210938 16.15625 -16.519531 16.21875 -16.9375 Z M 16.6875 -16.9375 "/></g></g></g><g fill="#ffffff" fill-opacity="1"><g transform="translate(263.915895, 187.101199)"><g><path d="M 9.65625 -16.78125 C 12.289062 -16.882812 14.429688 -16.117188 16.078125 -14.484375 C 17.734375 -12.847656 18.5625 -10.800781 18.5625 -8.34375 C 18.5625 -6.238281 17.945312 -4.390625 16.71875 -2.796875 C 15.082031 -0.679688 12.78125 0.375 9.8125 0.375 C 6.832031 0.375 4.53125 -0.632812 2.90625 -2.65625 C 1.625 -4.25 0.984375 -6.140625 0.984375 -8.328125 C 0.984375 -10.785156 1.816406 -12.832031 3.484375 -14.46875 C 5.160156 -16.113281 7.21875 -16.882812 9.65625 -16.78125 Z M 9.796875 -16 C 8.285156 -16 7.132812 -15.226562 6.34375 -13.6875 C 5.707031 -12.414062 5.390625 -10.59375 5.390625 -8.21875 C 5.390625 -5.394531 5.882812 -3.304688 6.875 -1.953125 C 7.5625 -1.003906 8.53125 -0.53125 9.78125 -0.53125 C 10.613281 -0.53125 11.3125 -0.734375 11.875 -1.140625 C 12.59375 -1.660156 13.148438 -2.492188 13.546875 -3.640625 C 13.941406 -4.785156 14.140625 -6.28125 14.140625 -8.125 C 14.140625 -10.3125 13.9375 -11.945312 13.53125 -13.03125 C 13.125 -14.113281 12.601562 -14.878906 11.96875 -15.328125 C 11.34375 -15.773438 10.617188 -16 9.796875 -16 Z M 9.796875 -16 "/></g></g></g><g fill="#ffffff" fill-opacity="1"><g transform="translate(283.35865, 187.101199)"><g><path d="M 11.921875 -5.640625 L 16.40625 -16.546875 L 23.140625 -16.546875 L 23.140625 -16.09375 L 22.609375 -16.09375 C 22.117188 -16.09375 21.726562 -16.007812 21.4375 -15.84375 C 21.226562 -15.726562 21.066406 -15.535156 20.953125 -15.265625 C 20.859375 -15.078125 20.8125 -14.570312 20.8125 -13.75 L 20.8125 -2.828125 C 20.8125 -1.984375 20.851562 -1.453125 20.9375 -1.234375 C 21.03125 -1.023438 21.210938 -0.84375 21.484375 -0.6875 C 21.765625 -0.53125 22.140625 -0.453125 22.609375 -0.453125 L 23.140625 -0.453125 L 23.140625 0 L 14.5 0 L 14.5 -0.453125 L 15.046875 -0.453125 C 15.523438 -0.453125 15.914062 -0.535156 16.21875 -0.703125 C 16.414062 -0.816406 16.578125 -1.015625 16.703125 -1.296875 C 16.785156 -1.492188 16.828125 -2.003906 16.828125 -2.828125 L 16.828125 -15.09375 L 10.484375 0 L 10.1875 0 L 3.75 -14.984375 L 3.75 -3.328125 C 3.75 -2.515625 3.769531 -2.015625 3.8125 -1.828125 C 3.914062 -1.421875 4.144531 -1.085938 4.5 -0.828125 C 4.851562 -0.578125 5.410156 -0.453125 6.171875 -0.453125 L 6.171875 0 L 0.5 0 L 0.5 -0.453125 L 0.671875 -0.453125 C 1.035156 -0.441406 1.375 -0.5 1.6875 -0.625 C 2.007812 -0.75 2.25 -0.914062 2.40625 -1.125 C 2.570312 -1.34375 2.703125 -1.644531 2.796875 -2.03125 C 2.804688 -2.113281 2.8125 -2.523438 2.8125 -3.265625 L 2.8125 -13.75 C 2.8125 -14.582031 2.765625 -15.101562 2.671875 -15.3125 C 2.585938 -15.519531 2.40625 -15.703125 2.125 -15.859375 C 1.851562 -16.015625 1.488281 -16.09375 1.03125 -16.09375 L 0.5 -16.09375 L 0.5 -16.546875 L 7.265625 -16.546875 Z M 11.921875 -5.640625 "/></g></g></g><g fill="#ffffff" fill-opacity="1"><g transform="translate(306.951171, 187.101199)"><g><path d="M 6.75 -7.5 L 6.75 -2.90625 C 6.75 -2.007812 6.800781 -1.441406 6.90625 -1.203125 C 7.019531 -0.972656 7.21875 -0.789062 7.5 -0.65625 C 7.78125 -0.519531 8.296875 -0.453125 9.046875 -0.453125 L 9.046875 0 L 0.640625 0 L 0.640625 -0.453125 C 1.398438 -0.453125 1.914062 -0.519531 2.1875 -0.65625 C 2.457031 -0.800781 2.648438 -0.988281 2.765625 -1.21875 C 2.878906 -1.445312 2.9375 -2.007812 2.9375 -2.90625 L 2.9375 -13.640625 C 2.9375 -14.535156 2.878906 -15.097656 2.765625 -15.328125 C 2.648438 -15.566406 2.453125 -15.753906 2.171875 -15.890625 C 1.898438 -16.023438 1.390625 -16.09375 0.640625 -16.09375 L 0.640625 -16.546875 L 7.84375 -16.546875 C 10.21875 -16.546875 11.921875 -16.125 12.953125 -15.28125 C 13.992188 -14.4375 14.515625 -13.378906 14.515625 -12.109375 C 14.515625 -11.035156 14.179688 -10.113281 13.515625 -9.34375 C 12.847656 -8.582031 11.925781 -8.0625 10.75 -7.78125 C 9.96875 -7.59375 8.632812 -7.5 6.75 -7.5 Z M 6.75 -15.59375 L 6.75 -8.453125 C 7.019531 -8.429688 7.222656 -8.421875 7.359375 -8.421875 C 8.347656 -8.421875 9.113281 -8.710938 9.65625 -9.296875 C 10.195312 -9.890625 10.46875 -10.804688 10.46875 -12.046875 C 10.46875 -13.273438 10.195312 -14.171875 9.65625 -14.734375 C 9.113281 -15.304688 8.3125 -15.59375 7.25 -15.59375 Z M 6.75 -15.59375 "/></g></g></g><g fill="#ffffff" fill-opacity="1"><g transform="translate(320.364492, 187.101199)"><g><path d="M 10.40625 -4.71875 L 4.546875 -4.71875 L 3.859375 -3.09375 C 3.628906 -2.5625 3.515625 -2.117188 3.515625 -1.765625 C 3.515625 -1.304688 3.703125 -0.96875 4.078125 -0.75 C 4.296875 -0.613281 4.835938 -0.515625 5.703125 -0.453125 L 5.703125 0 L 0.203125 0 L 0.203125 -0.453125 C 0.796875 -0.546875 1.28125 -0.789062 1.65625 -1.1875 C 2.039062 -1.59375 2.515625 -2.425781 3.078125 -3.6875 L 9 -16.890625 L 9.234375 -16.890625 L 15.203125 -3.328125 C 15.765625 -2.035156 16.234375 -1.222656 16.609375 -0.890625 C 16.878906 -0.640625 17.269531 -0.492188 17.78125 -0.453125 L 17.78125 0 L 9.765625 0 L 9.765625 -0.453125 L 10.09375 -0.453125 C 10.738281 -0.453125 11.191406 -0.539062 11.453125 -0.71875 C 11.628906 -0.851562 11.71875 -1.039062 11.71875 -1.28125 C 11.71875 -1.425781 11.691406 -1.578125 11.640625 -1.734375 C 11.628906 -1.804688 11.507812 -2.113281 11.28125 -2.65625 Z M 9.984375 -5.609375 L 7.515625 -11.3125 L 4.984375 -5.609375 Z M 9.984375 -5.609375 "/></g></g></g><g fill="#ffffff" fill-opacity="1"><g transform="translate(338.415875, 187.101199)"><g><path d="M 6.21875 -16.546875 L 14.390625 -6.28125 L 14.390625 -13.40625 C 14.390625 -14.394531 14.25 -15.066406 13.96875 -15.421875 C 13.570312 -15.890625 12.914062 -16.113281 12 -16.09375 L 12 -16.546875 L 17.46875 -16.546875 L 17.46875 -16.09375 C 16.769531 -16.007812 16.300781 -15.894531 16.0625 -15.75 C 15.820312 -15.613281 15.632812 -15.382812 15.5 -15.0625 C 15.363281 -14.738281 15.296875 -14.1875 15.296875 -13.40625 L 15.296875 0.375 L 14.875 0.375 L 3.6875 -13.40625 L 3.6875 -2.875 C 3.6875 -1.925781 3.90625 -1.285156 4.34375 -0.953125 C 4.78125 -0.617188 5.273438 -0.453125 5.828125 -0.453125 L 6.21875 -0.453125 L 6.21875 0 L 0.359375 0 L 0.359375 -0.453125 C 1.265625 -0.460938 1.894531 -0.648438 2.25 -1.015625 C 2.613281 -1.378906 2.796875 -2 2.796875 -2.875 L 2.796875 -14.5625 L 2.4375 -15 C 2.09375 -15.4375 1.785156 -15.722656 1.515625 -15.859375 C 1.242188 -16.003906 0.859375 -16.082031 0.359375 -16.09375 L 0.359375 -16.546875 Z M 6.21875 -16.546875 "/></g></g></g><g fill="#ffffff" fill-opacity="1"><g transform="translate(356.467258, 187.101199)"><g><path d="M 17.78125 -16.546875 L 17.78125 -16.09375 C 17.226562 -16.019531 16.804688 -15.863281 16.515625 -15.625 C 16.109375 -15.28125 15.46875 -14.347656 14.59375 -12.828125 L 11 -6.84375 L 11 -2.828125 C 11 -1.972656 11.039062 -1.441406 11.125 -1.234375 C 11.21875 -1.023438 11.394531 -0.84375 11.65625 -0.6875 C 11.925781 -0.53125 12.28125 -0.453125 12.71875 -0.453125 L 13.640625 -0.453125 L 13.640625 0 L 4.359375 0 L 4.359375 -0.453125 L 5.21875 -0.453125 C 5.707031 -0.453125 6.097656 -0.535156 6.390625 -0.703125 C 6.597656 -0.816406 6.765625 -1.015625 6.890625 -1.296875 C 6.972656 -1.492188 7.015625 -2.003906 7.015625 -2.828125 L 7.015625 -6.15625 L 3.125 -13.25 C 2.351562 -14.644531 1.804688 -15.46875 1.484375 -15.71875 C 1.171875 -15.96875 0.75 -16.09375 0.21875 -16.09375 L 0.21875 -16.546875 L 8.15625 -16.546875 L 8.15625 -16.09375 L 7.796875 -16.09375 C 7.316406 -16.09375 6.976562 -16.023438 6.78125 -15.890625 C 6.59375 -15.753906 6.5 -15.609375 6.5 -15.453125 C 6.5 -15.160156 6.828125 -14.425781 7.484375 -13.25 L 10.46875 -7.765625 L 13.453125 -12.75 C 14.191406 -13.976562 14.5625 -14.789062 14.5625 -15.1875 C 14.5625 -15.40625 14.457031 -15.585938 14.25 -15.734375 C 13.96875 -15.941406 13.457031 -16.0625 12.71875 -16.09375 L 12.71875 -16.546875 Z M 17.78125 -16.546875 "/></g></g></g></svg>